/* XPM */
static char *_c4a18c77824450bf712aeb12f60fca73kvoSLZSi90SSQx8[] = {
/* columns rows colors chars-per-pixel */
"64 64 256 2 ",
"   c black",
".  c #0000A8",
"X  c #00A800",
"o  c #00A8A8",
"O  c #A80000",
"+  c #A800A8",
"@  c #A85400",
"#  c gray66",
"$  c gray33",
"%  c #5454FC",
"&  c #54FC54",
"*  c #54FCFC",
"=  c #FC5454",
"-  c #FC54FC",
";  c #FCFC54",
":  c gray99",
">  c #ECECEC",
",  c gainsboro",
"<  c #D0D0D0",
"1  c #C0C0C0",
"2  c #B4B4B4",
"3  c gray66",
"4  c #989898",
"5  c gray55",
"6  c #7C7C7C",
"7  c gray44",
"8  c #646464",
"9  c gray33",
"0  c #484848",
"q  c gray22",
"w  c #2C2C2C",
"e  c #202020",
"r  c #FC0000",
"t  c #EC0000",
"y  c #E00000",
"u  c #D40000",
"i  c #C80000",
"p  c #BC0000",
"a  c #B00000",
"s  c #A40000",
"d  c #980000",
"f  c #880000",
"g  c #7C0000",
"h  c #700000",
"j  c #640000",
"k  c #580000",
"l  c #4C0000",
"z  c #400000",
"x  c #FCD8D8",
"c  c #FCB8B8",
"v  c #FC9C9C",
"b  c #FC7C7C",
"n  c #FC5C5C",
"m  c #FC4040",
"M  c #FC2020",
"N  c #FC0000",
"B  c #FCA85C",
"V  c #FC9840",
"C  c #FC8820",
"Z  c #FC7800",
"A  c #E46C00",
"S  c #CC6000",
"D  c #B45400",
"F  c #9C4C00",
"G  c #FCFCD8",
"H  c #FCFCB8",
"J  c #FCFC9C",
"K  c #FCFC7C",
"L  c #FCF85C",
"P  c #FCF440",
"I  c #FCF420",
"U  c #FCF400",
"Y  c #E4D800",
"T  c #CCC400",
"R  c #B4AC00",
"E  c #9C9C00",
"W  c #848400",
"Q  c #706C00",
"!  c #585400",
"~  c #404000",
"^  c #D0FC5C",
"/  c #C4FC40",
"(  c #B4FC20",
")  c #A0FC00",
"_  c #90E400",
"`  c #80CC00",
"'  c #74B400",
"]  c #609C00",
"[  c #D8FCD8",
"{  c #BCFCB8",
"}  c #9CFC9C",
"|  c #80FC7C",
" . c #60FC5C",
".. c #40FC40",
"X. c #20FC20",
"o. c #00FC00",
"O. c #00FC00",
"+. c #00EC00",
"@. c #00E000",
"#. c #00D400",
"$. c #04C800",
"%. c #04BC00",
"&. c #04B000",
"*. c #04A400",
"=. c #049800",
"-. c #048800",
";. c #047C00",
":. c #047000",
">. c #046400",
",. c #045800",
"<. c #044C00",
"1. c #044000",
"2. c #D8FCFC",
"3. c #B8FCFC",
"4. c #9CFCFC",
"5. c #7CFCF8",
"6. c #5CFCFC",
"7. c #40FCFC",
"8. c #20FCFC",
"9. c #00FCFC",
"0. c #00E4E4",
"q. c #00CCCC",
"w. c #00B4B4",
"e. c #009C9C",
"r. c #008484",
"t. c #007070",
"y. c #005858",
"u. c #004040",
"i. c #5CBCFC",
"p. c #40B0FC",
"a. c #20A8FC",
"s. c #009CFC",
"d. c #008CE4",
"f. c #007CCC",
"g. c #006CB4",
"h. c #005C9C",
"j. c #D8D8FC",
"k. c #B8BCFC",
"l. c #9C9CFC",
"z. c #7C80FC",
"x. c #5C60FC",
"c. c #4040FC",
"v. c #2024FC",
"b. c #0004FC",
"n. c #0000FC",
"m. c #0000EC",
"M. c #0000E0",
"N. c #0000D4",
"B. c #0000C8",
"V. c #0000BC",
"C. c #0000B0",
"Z. c #0000A4",
"A. c #000098",
"S. c #000088",
"D. c #00007C",
"F. c #000070",
"G. c #000064",
"H. c #000058",
"J. c #00004C",
"K. c #000040",
"L. c #282828",
"P. c #FCE034",
"I. c #FCD424",
"U. c #FCCC18",
"Y. c #FCC008",
"T. c #FCB400",
"R. c #B420FC",
"E. c #A800FC",
"W. c #9800E4",
"Q. c #8000CC",
"!. c #7400B4",
"~. c #60009C",
"^. c #500084",
"/. c #440070",
"(. c #340058",
"). c #280040",
"_. c #FCD8FC",
"`. c #FCB8FC",
"'. c #FC9CFC",
"]. c #FC7CFC",
"[. c #FC5CFC",
"{. c #FC40FC",
"}. c #FC20FC",
"|. c #FC00FC",
" X c #E000E4",
".X c #C800CC",
"XX c #B400B4",
"oX c #9C009C",
"OX c #840084",
"+X c #6C0070",
"@X c #580058",
"#X c #400040",
"$X c #FCE8DC",
"%X c #FCE0D0",
"&X c #FCD8C4",
"*X c #FCD4BC",
"=X c #FCCCB0",
"-X c #FCC4A4",
";X c #FCBC9C",
":X c #FCB890",
">X c #FCB080",
",X c #FCA470",
"<X c #FC9C60",
"1X c #F0945C",
"2X c #E88C58",
"3X c #DC8854",
"4X c #D08050",
"5X c #C87C4C",
"6X c #BC7848",
"7X c #B47044",
"8X c #A86840",
"9X c #A0643C",
"0X c #9C6038",
"qX c #905C34",
"wX c #885830",
"eX c #80502C",
"rX c #744C28",
"tX c #6C4824",
"yX c #5C4020",
"uX c #543C1C",
"iX c #483818",
"pX c #403018",
"aX c #382C14",
"sX c #28200C",
"dX c #600064",
"fX c #006464",
"gX c #006060",
"hX c #00001C",
"jX c #00002C",
"kX c #302410",
"lX c #480048",
"zX c #500050",
"xX c #000034",
"cX c gray11",
"vX c #4C4C4C",
"bX c gray36",
"nX c gray25",
"mX c gray19",
"MX c #343434",
"NX c #D8F4F4",
"BX c #B8E8E8",
"VX c #9CDCDC",
"CX c #74C8C8",
"ZX c #48C0C0",
"AX c #20B4B4",
"SX c #20B0B0",
"DX c #00A4A4",
"FX c #009898",
"GX c #008C8C",
"HX c #008484",
"JX c #007C7C",
"KX c #007878",
"LX c #007474",
"PX c #007070",
"IX c #006C6C",
"UX c #980088",
/* pixels */
"w w e e e w 0 0 q q 0 q w w e L.w cXcXcXcXq e e w w w w w w w w w w w e cXe e w w w w w q q w w w w q 0 q q w w e e e e e e w w ",
"q q w e e w q q w w q w e e L.L.w cXcXw w cXe e L.L.w w w w w w e e e q cXe e w w q q 0 0 0 q mXmXmXq q q q w q w w e e e w q q ",
"0 0 w e e w w w w w w e cXL.L.cXe q cXw w q e w L.L.L.e e e e w e q q cXcXL.L.w q nX0 9 9 nXq q q q mXw q q q w q w q e L.q 0 0 ",
"q w e e e e e e e L.L.L.L.L.e e e e q cXcXe e w L.L.L.e L.L.L.e e q cXw e L.L.MXq 0 0 9 nXMXw 0 0 nXmXmXq w w w w q w e L.L.0 q ",
"w e cXe e e cXcXL.L.L.L.L.e e w w w w w w w w L.e e cXcXL.L.L.cXcXw w cXe L.L.w q nX0 0 nXq q 9 0 vXq q w w w e e w w w e q q 0 ",
"e cXw e w e e cXcXcXcXcXe w w w q nXq w q w mXw w L.e e cXcXcXcXcXw cXe L.L.q q w q 0 nXq nXnXvXbXbXnXq q mXe e q q e w e w q w ",
"w cXcXe L.L.e e e e e e w w mXnXnX0 0 q w q mXmXmXmXL.e e e e e e e e e L.MX0 0 nXq nXq w q nXvXbXbX0 nXmXmXe e q cXcXe e e e e ",
"cXcXe w MXMXL.L.e e e w mXq q nX0 9 9 0 nXw cXcXe mXw e w w w w w w e e w MX0 0 nXnXnXw q w nXvXvX0 9 0 mXw w w e cXcXcXe e w e ",
"e e w w MXnXMXL.L.w e mXmXmXnXnX0 9 9 0 0 nXw cXe mXw e w w q 0 q w cXe L.L.q nXnXnXnXL.w MXnXnXnXnX0 nXw e w mXw w cXcXcXe e e ",
"e w q w MXMXMXe L.L.w mXMXq nX0 nXnX0 9 0 nXw mXq w w L.w w 0 9 0 w cXe L.mXMXnXnXnXe e L.nXq q e w nXmXmXq e mXq MXMXcXcXe e cX",
"w q 0 0 e cXe w e e w mXmXmXnXnXnXq nX0 nXMXq q q mXL.L.e w q 0 q e cXe L.w w mXMXe e cXe nXnXnXq q MXw e e w mXq q w e cXe e e ",
"w w q w w e cXw e w MXq w cXnXnXq w MXMXmXq q 0 q mXL.L.e cXw cXcXe cXe L.w MXMXw e cXcXe nXnXnXMXe w w w w w mXmXw L.e cXe e e ",
"e w MXnXnXMXmXw e MXMX0 0 q w q q MXMXw MXw MXMXmXw L.L.cXe e cXcXcXcXe e w w w w e L.cXe nXnXnXq w e q e e q cXw L.e e cXcXcXe ",
"e L.MXnXnXMXcXL.w w q 9 0 nXnXmXmXmXmXmXw e e e e e w e cXe cXcXcXcXe e e L.q q e w L.cXL.MXw w MXq e w w cXcXcXcXe e cXe e e e ",
"cXL.L.MXmXL.L.L.w w q 0 0 nXnXMXcXe w q e e L.cXL.e L.e cXe e e e e e e e L.q q e cXcXe e w w e e e w q w cXcXcXe e cXcXe e e cX",
"e e cXL.L.w w cXw MXw q nXnXnXMXe w w w e L.cXL.cXL.e e e e MXnXnXnXMXL.e cXL.cXw cXcXL.MXq q e q q e q e q w L.cXcXcXe e e cXe ",
"e cXcXL.L.cXcXe w MXMXw w MXMXmXw MXMXw L.e cXL.L.cXcXcXcXe MXnXnX0 mXL.e cXL.L.cXcXcXL.w MXq w MXq e L.L.w w L.e cXe e e cXw e ",
"w w e e e e e e L.w MXe e e e L.w MXMXL.e e e cXL.e e w q L.L.MXnXnXq L.cXe L.L.L.L.w w L.L.w w w e cXL.L.L.L.e e cXcXe e e cXe ",
"q w w w w w e L.L.L.w e L.cXcXL.e w L.e cXe e cXe e w w L.L.MXMXMXmXmXL.cXcXe L.cXL.cXcXcXe e L.w cXcXe e e e e cXcXcXe e e e w ",
"nXnXq nXw w w e L.L.e L.w L.L.cXe e e e cXcXcXL.e e w q MXMXMXMXL.e e L.cXcXe e e e cXw cXe cXL.L.e e cXcXe e e e cXcXe e e w q ",
"0 0 nXq q q q w L.L.e L.w L.L.L.cXq e e e cXe e e w q MXMXnXnXMXe e e cXcXcXe L.q e e cXcXe e e L.L.e cXcXcXcXe e e e e e e w 0 ",
"9 0 0 nX0 0 q w e e e L.L.L.L.L.L.cXcXcXcXcXe e w q e L.MXnX0 nXL.L.cXcXcXcXL.w L.cXe e e cXcXe e e cXcXcXcXe e L.L.L.w w w 0 q ",
"w q 0 nX0 0 q q L.e e cXcXe e e e L.L.L.mXL.L.e e e w L.mXnXnXnXmXcXcXcXe e L.L.L.cXe e e e cXcXcXcXcXw e e e L.w nXnX0 0 0 q w ",
"w 0 0 q w q mXe w cXe cXL.e e e e q w mXq L.L.cXcXe cXL.L.L.e mXe e cXe cXe e cXcXe e e L.L.e cXcXcXcXcXe e L.w MXnX0 9 0 0 q w ",
"q 0 nXq vXvXmXe cXL.e cXcXe e w w w mXq mXw e cXcXe cXcXL.e mXe cXcXe cXe L.L.L.L.e e e L.L.w 0 q w e cXL.e L.MXq nX0 0 0 q 0 q ",
"0 9 9 w vXvXnXL.cXcXe e e L.w q q 0 0 w w q w e e e e L.L.cXcXe cXe cXe w L.L.L.w L.L.e e e L.q q e e cXL.e w q 0 0 0 q nX0 q 0 ",
"0 9 9 e MXnXnXL.L.cXe e L.w q w 0 9 9 0 q mXw L.e e e e cXcXcXcXcXcXL.w w MXMXMXMXw w L.L.e e L.cXe e cXL.L.w q 0 9 nXw q 0 0 0 ",
"0 q 0 e MXMXMXcXL.cXe L.w q 0 9 0 9 9 0 nXq mXw L.e e e cXcXcXcXe L.e e MXnXnXnXw MXMXq w L.e e L.L.L.L.e L.w MXnXnXw w w q 0 0 ",
"q w q e L.w cXL.e e L.w q mX0 0 nXnX0 nXnXnXq mXw e e e e e e e L.w e e w nX0 0 nXnX0 q w MXL.L.e L.L.e L.L.MXMXMXMXnXe e w MXq ",
"q e w w e w w L.L.L.w w mXmXq q q q q nXq w mXMXw L.e cXcXe L.w w w q w nX0 9 9 9 0 nX0 q w MXw L.e e e L.L.w w w e w e e w w e ",
"w w q e e q w cXe w mXq q w w q q MXnX0 0 MXL.MXMXMXe cXL.w w q w MXw nXnX0 9 9 9 0 q 0 q MXw w w L.e e L.L.w e e L.q e w q L.L.",
"cXcXw q q w L.cXw mXq 9 0 nXMXmXmXMXnX0 9 MXL.MXMXL.e L.L.w MXw MXq w nXnXnX0 w q nX0 nXMXw MXq q w L.e e L.L.e L.q q w q w e cX",
"cXcXL.L.L.L.cXe w mXnX0 0 nXMXmXL.mXMXMXMXcXL.cXL.cXe e L.MXnXnXnXnXq w q q w w w nXnXnXw MXw q q mXL.e e e L.e e w e q w cXL.L.",
"e e cXcXcXe e e L.L.mXq q mXw mXL.mXcXL.L.L.cXL.cXe e L.w nXnX0 0 nXnXq 0 q q 0 q w MXw w w MXMXMXmXL.e cXe e L.L.L.L.w w e e e ",
"MXq w w MXMXe e L.e L.e MXMXMXMXMXMXL.MXMXL.e cXcXe L.mXMXnX9 9 0 nXnX0 0 0 0 0 q w w e q e mXMXMXmXL.e cXe e e L.L.L.L.L.w q q ",
"0 0 q w nXnXMXe cXcXe cXcXMXMXL.e e MXMXMXL.e cXe L.w MXnX0 9 9 0 nX0 0 9 9 9 nX0 q w q e e w L.mXMXe L.cXe e q q e e e e q 0 0 ",
"0 0 nXMX9 nXMXw e L.L.L.cXL.L.e e L.L.L.L.e cXe L.MXnXnXnX0 0 0 nXnX0 9 8 8 9 0 0 q mXq e e w MXMXMXL.L.e cXe q q w w w w 0 0 0 ",
"q 0 nXMXq 0 MXw e L.L.L.e L.e L.cXe e e cXcXL.L.MXnXnXnXnXnXnXq q nX0 9 9 9 9 0 0 q mXq w q w q L.e L.L.e cXe w q 0 q w w 0 0 nX",
"q 0 nXMXq q MXw cXcXe e cXe e L.e cXe e cXcXe MXnX0 0 0 0 nXq q w w q 0 0 0 0 0 nXnXq 0 q w q L.cXcXcXe e cXe w q q q w w q 0 q ",
"0 q MXnX9 0 e w cXcXe e e L.L.e e e e cXe cXL.MXnX0 9 9 0 nXq q mXMXnXnXnXnXnXnXMXnXnXnXnXq w L.cXcXcXe e cXe L.L.w w e w 0 q 0 ",
"q w w nX0 0 MXe q cXe e e L.L.e e cXcXe e e L.MXnX0 9 9 0 nXq L.mXMXnXnXnXMXL.L.MXnXnXq w e e L.cXcXe e e cXe e e L.L.e w q q q ",
"w w q w nXq MXw cXcXe e e e e e e e e e e L.w MXnX0 0 0 nXnXq L.w e mXnXq mXMXe MXMXMXw w q L.w L.cXe e e cXe e cXcXe e e w w w ",
"w w q w w w w w w w e e e e e e e e e e e L.w MXq nX0 0 nXMXMXw q w w q q mXq q MXL.L.e q cXcXw L.e e cXcXcXe e cXcXcXe e cXq e ",
"w w w cXcXcXw e w w e e w q w e e e e e e L.w w w MXMXL.e MXMXq w q q w mXw q q MXe e e L.cXw cXe e e e e e cXcXe cXL.L.L.e cXq ",
"q cXcXcXcXw w w w cXe w q 9 0 MXw w e e e L.w MXMXMXMXMXL.e MXw q 0 0 q w q e MXcXL.cXL.cXw cXe e cXcXe e e cXcXe L.q q w L.e q ",
"e e e e e e cXcXcXe e w q 0 q MXq 0 w e L.L.L.w MXMXMXMXcXe L.w q 0 9 0 q w e cXL.w w w L.e e e e cXcXe e e L.w w q 9 9 q mXL.e ",
"w w w w w w e e e e e w w e e MXMX0 MXcXL.e e L.w MXMXMXcXe L.q nXnXnXq mXe e cXL.e e e L.e e e cXe cXcXe L.w q q 0 0 9 0 q q q ",
"q q q w q MXw L.e e e w w cXcXe MXMXMXL.e e e e w w w w e L.w w nXnXnXnXL.e L.w e e cXe e cXe e cXcXcXcXL.w q q q nX0 0 q 0 0 0 ",
"vXbXbXq q MXMXw L.e e e e cXcXe L.e e e e L.L.L.e e e e w w w w q q nXnXe cXL.w L.e cXcXe e e e cXcXe e w q 0 0 0 MXnXnXq 0 0 w ",
"vXbXbXvXq q MXw w w L.e cXe e L.L.e e e e e e L.e e e e L.L.cXw w w w cXe L.L.L.L.e cXcXe e e cXe cXcXw q q 0 9 9 0 q q q q w e ",
"nXvXvXvXMX0 MXMXMXw L.cXe cXe e e e e e e e e L.L.cXe e e e e e e w e cXe e e e e L.L.cXcXcXcXcXe e L.q w nX0 9 9 0 nXq 0 nXq q ",
"q q MXMXnXnXnXnXnXMXw e cXe e e e e e cXe L.cXe L.L.L.e cXcXe cXcXe cXcXcXcXe L.L.L.L.e cXcXe e e e L.w q nX0 0 0 0 nXMXnX0 0 q ",
"0 q MXMXnXvXbXbXvXnXq w L.e e e e e e L.e L.cXe L.L.e e cXe e e cXe e e e cXe e e e e e cXcXe cXcXe q q w MXnXq q nXnXw MX0 9 9 ",
"w w w w nXvXbXbXvXnXq MXw L.e e cXcXL.L.cXL.L.e e e cXcXcXe e e e e e e e e cXcXe e cXw cXcXcXcXe w q MXw w MX0 0 e cXw w 0 9 w ",
"MXq q w nXvXvXnXnXMXMXMXw L.L.e e w cXe e e L.cXcXcXcXcXcXcXcXcXcXcXcXe e cXcXcXw w cXcXw w cXe L.q 0 0 w w nX0 0 w e e w q 0 w ",
"q q MXw q nXnXnXw q MXw w L.L.e w w e L.L.L.L.e e e cXw cXcXcXcXcXcXcXcXcXcXe e cXe e cXw w cXL.w q 0 0 q MXq nXq w w w MXq q q ",
"0 nXnXw MXMXMXw q q q w e e e e e e L.L.w w w w w e e e cXw cXcXcXcXcXcXe cXcXe e e L.e cXcXe L.w q q nXnXnXMXw w MXq q q w w w ",
"bXvXnXw w w w w q q w e e e cXe e L.L.L.w nXnXnXnXw w w e e cXcXe e e e cXe L.L.L.L.L.e e e e L.L.w MXnXnXMXMXw MXnXnX0 q nX0 0 ",
"bXbXvXnXL.L.w w w q w q L.L.L.cXL.L.L.w nXnX9 bXvXnXq w q w e e cXe e e e L.w w w q w q w e e e L.L.MXMXMXMXe e w nXnXnXw w nX0 ",
"bX0 nXw L.e L.MXMXw w q L.L.cXcXL.w q 0 nXvXvXbXvXnXcXq w q L.L.e cXe e L.w q MXq w q w w w e e L.e L.MXnXMXcXe w nXnXnXL.w w nX",
"0 q q w L.e L.MXMXL.w e L.L.cXcXL.L.0 9 q nXvXvXnXcXcXw w w L.L.L.e e L.w MXMXq 0 0 q nXnXcXL.L.e L.e MXnXnXL.cXw q nXw e L.w q ",
"q q w L.L.cXcXcXL.L.e cXL.cXcXe L.w q 0 w nXnXnXq w w e q e w L.e e e L.MXnXnX0 9 9 q nXnXcXw L.e L.L.MXMXL.e cXw w w L.e e w w ",
"e e w L.e cXw w L.cXL.L.L.cXcXL.w q w w e e w q w w e e q q w L.L.e L.L.MXnXnX0 9 9 q MXq q w L.e L.cXw w cXL.L.e w w L.e e q w ",
"cXe e w cXw cXcXe cXL.L.e e e L.w w w w e e w w q w e q q e w L.e L.e L.w nXnXw q q w MXw w w L.e w L.w w w w L.L.L.L.L.L.e e e "
};
